<!-- Generator: Adobe Illustrator 19.2.1, SVG Export Plug-In . SVG Version: 6.00 Build 0)  -->
<svg version="1.1" id="svg-logo" xmlns="http://www.w3.org/2000/svg" xmlns:xlink="http://www.w3.org/1999/xlink" x="0px" y="0px"
	 viewBox="0 0 321.1 150.4" style="enable-background:new 0 0 321.1 150.4;" xml:space="preserve">
<style type="text/css">
	.st0{fill:#1D1D1B;stroke:#1D1D1B;stroke-width:3;stroke-miterlimit:10;}
	.st1{fill:#1D1D1B;}
</style>
<g>
	<path class="st0" d="M-75.1-415.6c-12.2,3-38.6,27.7-34,46.3c1.2,5.1,6.1,6.9,11.9,5.4c3.4-0.8,6.1-2.5,6.7-5.4
		c0.9-4.6-5-7.3-4.9-7.8c0-0.6,0.4-1.1,0.9-1.3c1-0.5,2.5,0.1,2.6,0.2c0,0,1.2,0.6,2.2,2c1,1.2,1.9,3.4,1.3,6.7
		c-0.9,4.9-5.5,8.6-11.2,10c-10.6,2.6-18.4-2-20.3-9.6c-4-16.5,18.8-43.6,44.9-49.9c13.7-3.4,18.5,8.3,19.8,13.6
		c3.4,14-18.5,52.4-17.5,56.4c0,0,25.7-45.3,30-46.4c4.3-1.1,9.6,3.3,10.2,6.1c1,4.1-8.9,24.4-8.9,24.4
		c-4.8,10.5-9.3,21.2-11.3,29.1c2.1-3.4,8.2-14.1,14.6-24.6c15.7-26,17.6-26.5,18.2-26.7c3.9-1,8.4,2.9,9,5.4
		c0.5,1.9-1.4,6.3-3.9,12.2c-3.9,8.9-10.2,20.9-7.3,32.6c3.5,14.3,15.9,22.5,25.6,20.1c11.2-2.7,10.4-14.5,11.2-14.7
		c1.2-0.3,2.2-0.1,3,0.5c1.5,1.4,1.2,4.3,1.3,4.4c0,0.1-0.4,2.5-2.3,5.4c-1.7,2.6-5.1,6-11.6,7.6c-13.1,3.2-31.8-3.9-36.6-23.3
		c-2.7-11.1,1.1-21.9,4.1-28.7c1.9-4.6,4.1-8.5,5.4-10.9c-6.3,7.4-23.9,36.3-30.8,51.3c0,0-7,3.1-9.1-5.5
		c-2.9-12,18.7-54.9,18.7-54.9c-7.5,1.8-36.7,55.4-34.2,65.4c0.7,2.7-8,3.4-10.2-5.3c-6-24.7,26.4-73.9,23.6-85.4
		C-65-414.6-69.3-417.1-75.1-415.6L-75.1-415.6z"/>
	<path class="st0" d="M21.1-381.7C10.3-379-6.4-341.8,0.2-343.4c2.2-0.5,16.1-26.2,14.7-27.7c-1.4-1.4,6.5-1.9,8.1,4.8
		c1.6,6.7-4.6,18.5-1.7,17.7c2.8-0.7,12.9-19.2,18-33.4c0.9-2.4,3.9-2.1,2.7,1.4c-1.3,3.4-13.8,35.4-22.2,37.5
		c-3.8,0.9-8.8-3.9-9.4-6.2c-0.5-2.2,0.2-6,0.2-6S2.4-338.8-1-338c-3.3,0.8-9.7-2.1-11.3-8.6c-2.6-10.7,13.7-40.5,24-43.1
		C17.1-391,23.1-382.2,21.1-381.7z"/>
	<path class="st0" d="M53.8-363.8c-1.9-7.7,7.2-29.4,7.2-29.4c-3,0.7-21.8,37.8-20.8,42.1c1.7,6.8-6.2,1.5-8-5.7
		c-1.8-7.5,11.7-31,9.4-40.2c-0.8-3.2,6.8-1.4,9,7.8c1.1,4.5-1.3,8.3-1.3,8.3S62-402,65.1-402.8c3.2-0.8,6.3,3.4,7.4,7.9
		c1.1,4.5-13.7,37.2-9.4,36.2c5.5-1.3,15.1-20.4,20.2-34.6c0.8-2.3,3.8-2.1,2.6,1.4c-1.2,3.4-13.9,36-23,38.2
		C59.3-352.8,55.5-356.9,53.8-363.8z"/>
	<path class="st0" d="M108.8-403.1c-10.7,2.6-27.5,39.8-20.9,38.2c2.2-0.5,16.1-26.2,14.7-27.7c-1.4-1.4,6.5-1.9,8.1,4.8
		c1.6,6.7-4.6,18.5-1.7,17.7c2.8-0.7,12.9-19.2,18-33.4c0.9-2.4,3.9-2.1,2.7,1.4c-1.3,3.4-13.8,35.4-22.2,37.5
		c-3.8,0.9-8.8-3.9-9.4-6.2c-0.5-2.2,0.2-6,0.2-6s-8.2,16.4-11.6,17.3c-3.3,0.8-9.7-2.1-11.3-8.6c-2.6-10.7,13.7-40.5,24-43.1
		C104.9-412.5,110.8-403.6,108.8-403.1z"/>
	<path class="st0" d="M172.2-433.4c-0.7-2.7-7.8-6.7-18-4.2c-1.9,0.5-3.9,0.9-5.7,1.5c-6.3,23.2-20,61.4-13.3,59.7
		c2.8-0.7,14.2-19.5,19.4-33.8c0.8-2.3,3.9-2.1,2.6,1.4c-1.2,3.4-15.1,35.7-23.6,37.8c-6.9,1.7-9.5-4.3-10.6-8.7
		c-1.6-6.3,6.3-31.3,11.9-52.3c-3.2,1-6.6,1.8-10.2,2.7c-10.2,2.5-15-0.6-17.2-4c-1.9-2.9-0.6-3.9,1.3-3c3.2,1.6,8.3,2.5,14.6,1
		c5.5-1.3,10.3-2.9,13.4-4.1c2.5-9.8,4-17.6,3.2-20.6c-0.7-2.7,9-1.6,11.3,7.6c0.4,1.6-0.1,4.9-1.1,9.3c0.9-0.2,1.7-0.4,2.7-0.7
		c11.5-2.8,18.2,2.1,20.8,6.7C175.5-433.9,172.2-433.4,172.2-433.4z"/>
	<path class="st0" d="M179.9-395.2c-0.2,0.4-0.4,1-0.7,1.4c0,0-0.3,0.7-0.9,1.8c-3.3,5.7-7.7,11-12.6,13c-0.1,0.1-0.2,0.1-0.3,0.2
		c-0.2,0-0.4,0.1-0.4,0.2c-0.4,0.1-0.6,0.2-0.9,0.2c-3.7,0.9-10.3,0.6-12.7-9.2c-4-16.4,9.3-38.5,19.3-40.9
		c5.1-1.3,9.6,1.2,12.9,4.5c0.5,0.6,0.1,2-4,3c-15.2,3.7-22.9,40.3-14.9,38.3c5.4-1.3,12.8-14.6,12.8-14.6s-1.4-2.1-2.2-5.4
		c-1.8-7.4,6.5-13,8.4-5.3c0.4,1.7-0.5,5-2.5,9.6c0.3,0.2,1.4,0.3,1.9,0.2c4.4-1.1,6.9-9,11.6-22c0.8-2.3,3.9-2,2.6,1.4
		c-1.1,3.2-5.9,22-13.7,23.9C182.2-394.5,180.8-394.9,179.9-395.2z"/>
</g>
<!-- m -->
<path class="st0" d="M46.8,46.2c-12.2,3-38.6,27.7-34,46.3c1.2,5.1,6.1,6.9,11.9,5.4c3.4-0.8,6.1-2.5,6.7-5.4c0.9-4.6-5-7.3-4.9-7.8
	c0-0.6,0.4-1.1,0.9-1.3c1-0.5,2.5,0.1,2.6,0.2c0,0,1.2,0.6,2.2,2c1,1.2,1.9,3.4,1.3,6.7c-0.9,4.9-5.5,8.6-11.2,10
	c-10.6,2.6-18.4-2-20.3-9.6c-4-16.5,18.8-43.6,44.9-49.9c13.7-3.4,18.5,8.3,19.8,13.6c3.4,14-18.5,52.4-17.5,56.4
	c0,0,25.7-45.3,30-46.4c4.3-1.1,9.6,3.3,10.2,6.1c1,4.1-8.9,24.4-8.9,24.4c-4.8,10.5-9.3,21.2-11.3,29.1c2.1-3.4,8.2-14.1,14.6-24.6
	c15.7-26,17.6-26.5,18.2-26.7c3.9-1,8.4,2.9,9,5.4c0.5,1.9-1.4,6.3-3.9,12.2c-3.9,8.9-10.2,20.9-7.3,32.6
	c3.5,14.3,15.9,22.5,25.6,20.1c11.2-2.7,10.4-14.5,11.2-14.7c1.2-0.3,2.2-0.1,3,0.5c1.5,1.4,1.2,4.3,1.3,4.4c0,0.1-0.4,2.5-2.3,5.4
	c-1.7,2.6-5.1,6-11.6,7.6c-13.1,3.2-31.8-3.9-36.6-23.3c-2.7-11.1,1.1-21.9,4.1-28.7c1.9-4.6,4.1-8.5,5.4-10.9
	c-6.3,7.4-23.9,36.3-30.8,51.3c0,0-7,3.1-9.1-5.5C57,119,78.6,76.1,78.6,76.1C71.1,78,42,131.6,44.4,141.6c0.7,2.7-8,3.4-10.2-5.3
	c-6-24.7,26.4-73.9,23.6-85.4C56.9,47.2,52.7,44.7,46.8,46.2L46.8,46.2z"/>
<!-- /m -->
<!-- a -->
<path class="st0" d="M143.1,80.1c-10.7,2.6-27.5,39.8-20.9,38.2c2.2-0.5,16.1-26.2,14.7-27.7c-1.4-1.4,6.5-1.9,8.1,4.8
	c1.6,6.7-4.6,18.5-1.7,17.7c2.8-0.7,12.9-19.2,18-33.4c0.9-2.4,3.9-2.1,2.7,1.4c-1.3,3.4-13.8,35.4-22.2,37.5
	c-3.8,0.9-8.8-3.9-9.4-6.2c-0.5-2.2,0.2-6,0.2-6s-8.2,16.4-11.6,17.3c-3.3,0.8-9.7-2.1-11.3-8.6c-2.6-10.7,13.7-40.5,24-43.1
	C139.1,70.8,145.1,79.6,143.1,80.1z"/>
<!-- /a -->
<!-- n -->
<path class="st0" d="M175.8,98c-1.9-7.7,7.2-29.4,7.2-29.4c-3,0.7-21.8,37.8-20.8,42.1c1.7,6.8-6.2,1.5-8-5.7
	c-1.8-7.5,11.7-31,9.4-40.2c-0.8-3.2,6.8-1.4,9,7.8c1.1,4.5-1.3,8.3-1.3,8.3s12.6-21.1,15.7-21.8c3.2-0.8,6.3,3.4,7.4,7.9
	c1.1,4.5-13.7,37.2-9.4,36.2c5.5-1.3,15.1-20.4,20.2-34.6c0.8-2.3,3.8-2.1,2.6,1.4c-1.2,3.4-13.9,36-23,38.2
	C181.3,109,177.5,104.9,175.8,98z"/>
<!-- /n -->
<!-- a -->
<path class="st0" d="M230.8,58.7c-10.7,2.6-27.5,39.8-20.9,38.2c2.2-0.5,16.1-26.2,14.7-27.7c-1.4-1.4,6.5-1.9,8.1,4.8
	c1.6,6.7-4.6,18.5-1.7,17.7c2.8-0.7,12.9-19.2,18-33.4c0.9-2.4,3.9-2.1,2.7,1.4c-1.3,3.4-13.8,35.4-22.2,37.5
	c-3.8,0.9-8.8-3.9-9.4-6.2c-0.5-2.2,0.2-6,0.2-6s-8.2,16.4-11.6,17.3c-3.3,0.8-9.7-2.1-11.3-8.6c-2.6-10.7,13.7-40.5,24-43.1
	C226.8,49.3,232.8,58.2,230.8,58.7z"/>
<!-- /a -->
<!-- t-1 -->
<path class="st0" d="M273.5,17.7c0.8-3.7,1-6.2,0.6-7.7c-1.4-5.7-5.4-8.8-8.7-9.7c-2.1-0.6-3.9-0.4-4.9,0.5
	c-0.6,0.6-0.9,1.4-0.6,2.3c0.4,1.7,0.2,6.3-3,19.2l-2.8,10.6c-1,3.8-2.1,7.6-3.2,11.4c-5,18.1-9.4,33.7-8.1,39
	c0.8,3.1,1.9,5.6,3.5,7.3c1.7,1.9,3.9,2.8,6.3,2.8c0.8,0,1.7-0.1,2.6-0.3c9.9-2.4,24.5-38.4,24.6-38.7c0.8-2.3,0.2-3.5-0.3-4.1
	c-0.6-0.7-1.5-1-2.5-0.8c-1.2,0.2-2.2,1.2-2.6,2.5c-5,13.8-15.5,30.8-18.2,32.7c-1.3-3.5,4.9-23.9,9-37.5c2-6.7,4.1-13.5,5.7-19.4
	L273.5,17.7z"/>
<!-- /t-1 -->
<!-- o -->
<path class="st0" d="M301.9,66.6c-0.2,0.4-0.4,1-0.7,1.4c0,0-0.3,0.7-0.9,1.8c-3.3,5.7-7.7,11-12.6,13c-0.1,0.1-0.2,0.1-0.3,0.2
	c-0.2,0-0.4,0.1-0.4,0.2c-0.4,0.1-0.6,0.2-0.9,0.2c-3.7,0.9-10.3,0.6-12.7-9.2c-4-16.4,9.3-38.5,19.3-40.9c5.1-1.3,9.6,1.2,12.9,4.5
	c0.5,0.6,0.1,2-4,3c-15.2,3.7-22.9,40.3-14.9,38.3c5.4-1.3,12.8-14.6,12.8-14.6s-1.4-2.1-2.2-5.4c-1.8-7.4,6.5-13,8.4-5.3
	c0.4,1.7-0.5,5-2.5,9.6c0.3,0.2,1.4,0.3,1.9,0.2c4.4-1.1,6.9-9,11.6-22c0.8-2.3,3.9-2,2.6,1.4c-1.1,3.2-5.9,22-13.7,23.9
	C304.1,67.3,302.8,66.9,301.9,66.6z"/>
<!-- /o -->
<!-- t-2 -->
<path data-delay="100" class="st0" d="M269.1,30.3c1.5-0.4,3.2-0.8,4.8-1.2c4.2-1,8.4-1,11.7,0.1c3,1,4.3,2.4,4.4,2.9l0.3,1.3l1.3-0.2
	c0.2,0,2.3-0.3,3.1-2c0.4-0.7,0.6-2-0.4-3.6c-3.1-5.5-10.6-10.3-22.5-7.4l-17,4.6c-2.5,0.9-6.9,2.4-12.5,3.7
	c-7.1,1.7-11.9,0-13.6-0.9c-1.5-0.8-3-0.7-3.8,0.2c-0.7,0.8-1.2,2.2,0.6,4.9c2.5,3.6,7.7,7.3,18.8,4.6c2.7-0.7,5.3-1.3,7.7-2
	L269.1,30.3z"/>
<!-- /t-2 -->
</svg>
