<?xml version="1.0" encoding="utf-8"?>
<!-- Generator: Adobe Illustrator 19.2.1, SVG Export Plug-In . SVG Version: 6.00 Build 0)  -->
<svg version="1.1" id="Layer_1" xmlns="http://www.w3.org/2000/svg" xmlns:xlink="http://www.w3.org/1999/xlink" x="0px" y="0px"
	 viewBox="0 0 321.1 151.2" style="enable-background:new 0 0 321.1 151.2;" xml:space="preserve" id="svg-logo">
<style type="text/css">
	.st0{fill:#1D1D1B;stroke:#1D1D1B;stroke-width:3;stroke-miterlimit:10;}
</style>
<g>
	<path class="st0" d="M46.8,47c-12.2,3-38.6,27.7-34,46.3c1.2,5.1,6.1,6.9,11.9,5.4c3.4-0.8,6.1-2.5,6.7-5.4c0.9-4.6-5-7.3-4.9-7.8
		c0-0.6,0.4-1.1,0.9-1.3c1-0.5,2.5,0.1,2.6,0.2c0,0,1.2,0.6,2.2,2c1,1.2,1.9,3.4,1.3,6.7c-0.9,4.9-5.5,8.6-11.2,10
		c-10.6,2.6-18.4-2-20.3-9.6C-2.1,77,20.8,50,46.9,43.6c13.7-3.4,18.5,8.3,19.8,13.6c3.4,14-18.5,52.4-17.5,56.4
		c0,0,25.7-45.3,30-46.4c4.3-1.1,9.6,3.3,10.2,6.1c1,4.1-8.9,24.4-8.9,24.4c-4.8,10.5-9.3,21.2-11.3,29.1
		c2.1-3.4,8.2-14.1,14.6-24.6c15.7-26,17.6-26.5,18.2-26.7c3.9-1,8.4,2.9,9,5.4c0.5,1.9-1.4,6.3-3.9,12.2
		c-3.9,8.9-10.2,20.9-7.3,32.6c3.5,14.3,15.9,22.5,25.6,20.1c11.2-2.7,10.4-14.5,11.2-14.7c1.2-0.3,2.2-0.1,3,0.5
		c1.5,1.4,1.2,4.3,1.3,4.4c0,0.1-0.4,2.5-2.3,5.4c-1.7,2.6-5.1,6-11.6,7.6c-13.1,3.2-31.8-3.9-36.6-23.3
		c-2.7-11.1,1.1-21.9,4.1-28.7c1.9-4.6,4.1-8.5,5.4-10.9c-6.3,7.4-23.9,36.3-30.8,51.3c0,0-7,3.1-9.1-5.5C57,119.9,78.6,77,78.6,77
		c-7.5,1.8-36.7,55.4-34.2,65.4c0.7,2.7-8,3.4-10.2-5.3c-6-24.7,26.4-73.9,23.6-85.4C56.9,48,52.7,45.6,46.8,47L46.8,47z"/>
	<path class="st0" d="M143.1,81c-10.7,2.6-27.5,39.8-20.9,38.2c2.2-0.5,16.1-26.2,14.7-27.7c-1.4-1.4,6.5-1.9,8.1,4.8
		c1.6,6.7-4.6,18.5-1.7,17.7c2.8-0.7,12.9-19.2,18-33.4c0.9-2.4,3.9-2.1,2.7,1.4c-1.3,3.4-13.8,35.4-22.2,37.5
		c-3.8,0.9-8.8-3.9-9.4-6.2c-0.5-2.2,0.2-6,0.2-6s-8.2,16.4-11.6,17.3c-3.3,0.8-9.7-2.1-11.3-8.6c-2.6-10.7,13.7-40.5,24-43.1
		C139.1,71.6,145.1,80.5,143.1,81z"/>
	<path class="st0" d="M175.8,98.9c-1.9-7.7,7.2-29.4,7.2-29.4c-3,0.7-21.8,37.8-20.8,42.1c1.7,6.8-6.2,1.5-8-5.7
		c-1.8-7.5,11.7-31,9.4-40.2c-0.8-3.2,6.8-1.4,9,7.8c1.1,4.5-1.3,8.3-1.3,8.3s12.6-21.1,15.7-21.8c3.2-0.8,6.3,3.4,7.4,7.9
		c1.1,4.5-13.7,37.2-9.4,36.2c5.5-1.3,15.1-20.4,20.2-34.6c0.8-2.3,3.8-2.1,2.6,1.4c-1.2,3.4-13.9,36-23,38.2
		C181.3,109.9,177.5,105.7,175.8,98.9z"/>
	<path class="st0" d="M230.8,59.5c-10.7,2.6-27.5,39.8-20.9,38.2c2.2-0.5,16.1-26.2,14.7-27.7c-1.4-1.4,6.5-1.9,8.1,4.8
		c1.6,6.7-4.6,18.5-1.7,17.7c2.8-0.7,12.9-19.2,18-33.4c0.9-2.4,3.9-2.1,2.7,1.4c-1.3,3.4-13.8,35.4-22.2,37.5
		c-3.8,0.9-8.8-3.9-9.4-6.2c-0.5-2.2,0.2-6,0.2-6s-8.2,16.4-11.6,17.3c-3.3,0.8-9.7-2.1-11.3-8.6c-2.6-10.7,13.7-40.5,24-43.1
		C226.8,50.1,232.8,59,230.8,59.5z"/>
	<path class="st0" d="M294.1,29.2c-0.7-2.7-7.8-6.7-18-4.2c-1.9,0.5-3.9,0.9-5.7,1.5c-6.3,23.2-20,61.4-13.3,59.7
		c2.8-0.7,14.2-19.5,19.4-33.8c0.8-2.3,3.9-2.1,2.6,1.4c-1.2,3.4-15.1,35.7-23.6,37.8c-6.9,1.7-9.5-4.3-10.6-8.7
		c-1.6-6.3,6.3-31.3,11.9-52.3c-3.2,1-6.6,1.8-10.2,2.7c-10.2,2.5-15-0.6-17.2-4c-1.9-2.9-0.6-3.9,1.3-3c3.2,1.6,8.3,2.5,14.6,1
		c5.5-1.3,10.3-2.9,13.4-4.1c2.5-9.8,4-17.6,3.2-20.6c-0.7-2.7,9-1.6,11.3,7.6c0.4,1.6-0.1,4.9-1.1,9.3c0.9-0.2,1.7-0.4,2.7-0.7
		c11.5-2.8,18.2,2.1,20.8,6.7C297.4,28.8,294.1,29.2,294.1,29.2z"/>
	<path class="st0" d="M301.9,67.4c-0.2,0.4-0.4,1-0.7,1.4c0,0-0.3,0.7-0.9,1.8c-3.3,5.7-7.7,11-12.6,13c-0.1,0.1-0.2,0.1-0.3,0.2
		c-0.2,0-0.4,0.1-0.4,0.2c-0.4,0.1-0.6,0.2-0.9,0.2c-3.7,0.9-10.3,0.6-12.7-9.2c-4-16.4,9.3-38.5,19.3-40.9
		c5.1-1.3,9.6,1.2,12.9,4.5c0.5,0.6,0.1,2-4,3c-15.2,3.7-22.9,40.3-14.9,38.3c5.4-1.3,12.8-14.6,12.8-14.6s-1.4-2.1-2.2-5.4
		c-1.8-7.4,6.5-13,8.4-5.3c0.4,1.7-0.5,5-2.5,9.6c0.3,0.2,1.4,0.3,1.9,0.2c4.4-1.1,6.9-9,11.6-22c0.8-2.3,3.9-2,2.6,1.4
		c-1.1,3.2-5.9,22-13.7,23.9C304.1,68.1,302.8,67.8,301.9,67.4z"/>
</g>
</svg>
