<svg id="svg-logo" xmlns="http://www.w3.org/2000/svg" viewBox="0 0 321.1 151.2"><style>.st0{fill:#1d1d1b;stroke:#1d1d1b;stroke-width:3;stroke-miterlimit:10}</style><path class="st0" d="M46.8 47c-12.2 3-38.6 27.7-34 46.3 1.2 5.1 6.1 6.9 11.9 5.4 3.4-.8 6.1-2.5 6.7-5.4.9-4.6-5-7.3-4.9-7.8 0-.6.4-1.1.9-1.3 1-.5 2.5.1 2.6.2 0 0 1.2.6 2.2 2 1 1.2 1.9 3.4 1.3 6.7-.9 4.9-5.5 8.6-11.2 10-10.6 2.6-18.4-2-20.3-9.6C-2.1 77 20.8 50 46.9 43.6c13.7-3.4 18.5 8.3 19.8 13.6 3.4 14-18.5 52.4-17.5 56.4 0 0 25.7-45.3 30-46.4 4.3-1.1 9.6 3.3 10.2 6.1 1 4.1-8.9 24.4-8.9 24.4-4.8 10.5-9.3 21.2-11.3 29.1 2.1-3.4 8.2-14.1 14.6-24.6 15.7-26 17.6-26.5 18.2-26.7 3.9-1 8.4 2.9 9 5.4.5 1.9-1.4 6.3-3.9 12.2-3.9 8.9-10.2 20.9-7.3 32.6 3.5 14.3 15.9 22.5 25.6 20.1 11.2-2.7 10.4-14.5 11.2-14.7 1.2-.3 2.2-.1 3 .5 1.5 1.4 1.2 4.3 1.3 4.4 0 .1-.4 2.5-2.3 5.4-1.7 2.6-5.1 6-11.6 7.6-13.1 3.2-31.8-3.9-36.6-23.3-2.7-11.1 1.1-21.9 4.1-28.7 1.9-4.6 4.1-8.5 5.4-10.9-6.3 7.4-23.9 36.3-30.8 51.3 0 0-7 3.1-9.1-5.5-3-12 18.6-54.9 18.6-54.9-7.5 1.8-36.7 55.4-34.2 65.4.7 2.7-8 3.4-10.2-5.3-6-24.7 26.4-73.9 23.6-85.4-.9-3.7-5.1-6.1-11-4.7z"/><path class="st0" d="M143.1 81c-10.7 2.6-27.5 39.8-20.9 38.2 2.2-.5 16.1-26.2 14.7-27.7-1.4-1.4 6.5-1.9 8.1 4.8 1.6 6.7-4.6 18.5-1.7 17.7 2.8-.7 12.9-19.2 18-33.4.9-2.4 3.9-2.1 2.7 1.4-1.3 3.4-13.8 35.4-22.2 37.5-3.8.9-8.8-3.9-9.4-6.2-.5-2.2.2-6 .2-6s-8.2 16.4-11.6 17.3c-3.3.8-9.7-2.1-11.3-8.6-2.6-10.7 13.7-40.5 24-43.1 5.4-1.3 11.4 7.6 9.4 8.1z"/><path class="st0" d="M175.8 98.9c-1.9-7.7 7.2-29.4 7.2-29.4-3 .7-21.8 37.8-20.8 42.1 1.7 6.8-6.2 1.5-8-5.7-1.8-7.5 11.7-31 9.4-40.2-.8-3.2 6.8-1.4 9 7.8 1.1 4.5-1.3 8.3-1.3 8.3S183.9 60.7 187 60c3.2-.8 6.3 3.4 7.4 7.9 1.1 4.5-13.7 37.2-9.4 36.2 5.5-1.3 15.1-20.4 20.2-34.6.8-2.3 3.8-2.1 2.6 1.4-1.2 3.4-13.9 36-23 38.2-3.5.8-7.3-3.4-9-10.2z"/><path class="st0" d="M230.8 59.5c-10.7 2.6-27.5 39.8-20.9 38.2 2.2-.5 16.1-26.2 14.7-27.7-1.4-1.4 6.5-1.9 8.1 4.8 1.6 6.7-4.6 18.5-1.7 17.7 2.8-.7 12.9-19.2 18-33.4.9-2.4 3.9-2.1 2.7 1.4-1.3 3.4-13.8 35.4-22.2 37.5-3.8.9-8.8-3.9-9.4-6.2-.5-2.2.2-6 .2-6s-8.2 16.4-11.6 17.3c-3.3.8-9.7-2.1-11.3-8.6-2.6-10.7 13.7-40.5 24-43.1 5.4-1.3 11.4 7.6 9.4 8.1z"/><path class="st0" d="M294.1 29.2c-.7-2.7-7.8-6.7-18-4.2-1.9.5-3.9.9-5.7 1.5-6.3 23.2-20 61.4-13.3 59.7 2.8-.7 14.2-19.5 19.4-33.8.8-2.3 3.9-2.1 2.6 1.4-1.2 3.4-15.1 35.7-23.6 37.8-6.9 1.7-9.5-4.3-10.6-8.7-1.6-6.3 6.3-31.3 11.9-52.3-3.2 1-6.6 1.8-10.2 2.7-10.2 2.5-15-.6-17.2-4-1.9-2.9-.6-3.9 1.3-3 3.2 1.6 8.3 2.5 14.6 1 5.5-1.3 10.3-2.9 13.4-4.1 2.5-9.8 4-17.6 3.2-20.6-.7-2.7 9-1.6 11.3 7.6.4 1.6-.1 4.9-1.1 9.3.9-.2 1.7-.4 2.7-.7 11.5-2.8 18.2 2.1 20.8 6.7 1.8 3.3-1.5 3.7-1.5 3.7z"/><path class="st0" d="M301.9 67.4c-.2.4-.4 1-.7 1.4 0 0-.3.7-.9 1.8-3.3 5.7-7.7 11-12.6 13-.1.1-.2.1-.3.2-.2 0-.4.1-.4.2-.4.1-.6.2-.9.2-3.7.9-10.3.6-12.7-9.2-4-16.4 9.3-38.5 19.3-40.9 5.1-1.3 9.6 1.2 12.9 4.5.5.6.1 2-4 3-15.2 3.7-22.9 40.3-14.9 38.3 5.4-1.3 12.8-14.6 12.8-14.6s-1.4-2.1-2.2-5.4c-1.8-7.4 6.5-13 8.4-5.3.4 1.7-.5 5-2.5 9.6.3.2 1.4.3 1.9.2 4.4-1.1 6.9-9 11.6-22 .8-2.3 3.9-2 2.6 1.4-1.1 3.2-5.9 22-13.7 23.9-1.5.4-2.8.1-3.7-.3z"/></svg>